<?xml version="1.0" encoding="UTF-8" standalone="no"?>
<!DOCTYPE svg PUBLIC "-//W3C//DTD SVG 1.1//EN"
 "http://www.w3.org/Graphics/SVG/1.1/DTD/svg11.dtd">
<!-- Generated by graphviz version 14.1.5 (20260411.2331)
 -->
<!-- Title: G Pages: 1 -->
<svg width="598pt" height="268pt"
 viewBox="0.00 0.00 598.00 268.00" xmlns="http://www.w3.org/2000/svg" xmlns:xlink="http://www.w3.org/1999/xlink">
<g id="graph0" class="graph" transform="scale(1 1) rotate(0) translate(4 264)">
<title>G</title>
<polygon fill="white" stroke="none" points="-4,4 -4,-264 593.62,-264 593.62,4 -4,4"/>
<!-- National -->
<g id="node1" class="node">
<title>National</title>
<path fill="#e1f5fe" stroke="black" d="M154,-260C154,-260 81,-260 81,-260 75,-260 69,-254 69,-248 69,-248 69,-234 69,-234 69,-228 75,-222 81,-222 81,-222 154,-222 154,-222 160,-222 166,-228 166,-234 166,-234 166,-248 166,-248 166,-254 160,-260 154,-260"/>
<text xml:space="preserve" text-anchor="middle" x="117.5" y="-242.7" font-family="Helvetica,Arial,sans-serif" font-size="14.00">Національна</text>
<text xml:space="preserve" text-anchor="middle" x="117.5" y="-227.7" font-family="Helvetica,Arial,sans-serif" font-size="14.00">мова</text>
</g>
<!-- Literary -->
<g id="node2" class="node">
<title>Literary</title>
<path fill="#f9f9f9" stroke="black" d="M101.5,-186C101.5,-186 31.5,-186 31.5,-186 25.5,-186 19.5,-180 19.5,-174 19.5,-174 19.5,-160 19.5,-160 19.5,-154 25.5,-148 31.5,-148 31.5,-148 101.5,-148 101.5,-148 107.5,-148 113.5,-154 113.5,-160 113.5,-160 113.5,-174 113.5,-174 113.5,-180 107.5,-186 101.5,-186"/>
<text xml:space="preserve" text-anchor="middle" x="66.5" y="-168.7" font-family="Helvetica,Arial,sans-serif" font-size="14.00">Літературна</text>
<text xml:space="preserve" text-anchor="middle" x="66.5" y="-153.7" font-family="Helvetica,Arial,sans-serif" font-size="14.00">мова</text>
</g>
<!-- National&#45;&gt;Literary -->
<g id="edge1" class="edge">
<title>National&#45;&gt;Literary</title>
<path fill="none" stroke="#444444" d="M104.63,-221.83C99,-213.88 92.26,-204.37 86.03,-195.57"/>
<polygon fill="#444444" stroke="#444444" points="89.05,-193.79 80.42,-187.65 83.34,-197.83 89.05,-193.79"/>
</g>
<!-- Dialects -->
<g id="node3" class="node">
<title>Dialects</title>
<path fill="#f9f9f9" stroke="black" d="M204.75,-185C204.75,-185 154.25,-185 154.25,-185 148.25,-185 142.25,-179 142.25,-173 142.25,-173 142.25,-161 142.25,-161 142.25,-155 148.25,-149 154.25,-149 154.25,-149 204.75,-149 204.75,-149 210.75,-149 216.75,-155 216.75,-161 216.75,-161 216.75,-173 216.75,-173 216.75,-179 210.75,-185 204.75,-185"/>
<text xml:space="preserve" text-anchor="middle" x="179.5" y="-161.2" font-family="Helvetica,Arial,sans-serif" font-size="14.00">Діалекти</text>
</g>
<!-- National&#45;&gt;Dialects -->
<g id="edge2" class="edge">
<title>National&#45;&gt;Dialects</title>
<path fill="none" stroke="#444444" d="M133.15,-221.83C140.43,-213.37 149.23,-203.15 157.2,-193.9"/>
<polygon fill="#444444" stroke="#444444" points="159.64,-196.43 163.51,-186.56 154.34,-191.86 159.64,-196.43"/>
</g>
<!-- Styles -->
<g id="node4" class="node">
<title>Styles</title>
<path fill="#f9f9f9" stroke="black" d="M97,-112C97,-112 12,-112 12,-112 6,-112 0,-106 0,-100 0,-100 0,-86 0,-86 0,-80 6,-74 12,-74 12,-74 97,-74 97,-74 103,-74 109,-80 109,-86 109,-86 109,-100 109,-100 109,-106 103,-112 97,-112"/>
<text xml:space="preserve" text-anchor="middle" x="54.5" y="-94.7" font-family="Helvetica,Arial,sans-serif" font-size="14.00">Функціональні</text>
<text xml:space="preserve" text-anchor="middle" x="54.5" y="-79.7" font-family="Helvetica,Arial,sans-serif" font-size="14.00">стилі</text>
</g>
<!-- Literary&#45;&gt;Styles -->
<g id="edge3" class="edge">
<title>Literary&#45;&gt;Styles</title>
<path fill="none" stroke="#444444" d="M63.47,-147.83C62.24,-140.47 60.8,-131.78 59.42,-123.55"/>
<polygon fill="#444444" stroke="#444444" points="62.91,-123.19 57.82,-113.91 56.01,-124.35 62.91,-123.19"/>
</g>
<!-- Territorial -->
<g id="node5" class="node">
<title>Territorial</title>
<path fill="#f9f9f9" stroke="black" d="M220.12,-112C220.12,-112 138.88,-112 138.88,-112 132.88,-112 126.88,-106 126.88,-100 126.88,-100 126.88,-86 126.88,-86 126.88,-80 132.88,-74 138.88,-74 138.88,-74 220.12,-74 220.12,-74 226.12,-74 232.12,-80 232.12,-86 232.12,-86 232.12,-100 232.12,-100 232.12,-106 226.12,-112 220.12,-112"/>
<text xml:space="preserve" text-anchor="middle" x="179.5" y="-94.7" font-family="Helvetica,Arial,sans-serif" font-size="14.00">Територіальні</text>
<text xml:space="preserve" text-anchor="middle" x="179.5" y="-79.7" font-family="Helvetica,Arial,sans-serif" font-size="14.00">діалекти</text>
</g>
<!-- Dialects&#45;&gt;Territorial -->
<g id="edge4" class="edge">
<title>Dialects&#45;&gt;Territorial</title>
<path fill="none" stroke="#444444" d="M179.5,-148.57C179.5,-141.1 179.5,-132.17 179.5,-123.71"/>
<polygon fill="#444444" stroke="#444444" points="183,-123.79 179.5,-113.79 176,-123.79 183,-123.79"/>
</g>
<!-- Social -->
<g id="node6" class="node">
<title>Social</title>
<path fill="#f9f9f9" stroke="black" d="M363.25,-112C363.25,-112 309.75,-112 309.75,-112 303.75,-112 297.75,-106 297.75,-100 297.75,-100 297.75,-86 297.75,-86 297.75,-80 303.75,-74 309.75,-74 309.75,-74 363.25,-74 363.25,-74 369.25,-74 375.25,-80 375.25,-86 375.25,-86 375.25,-100 375.25,-100 375.25,-106 369.25,-112 363.25,-112"/>
<text xml:space="preserve" text-anchor="middle" x="336.5" y="-94.7" font-family="Helvetica,Arial,sans-serif" font-size="14.00">Соціальні</text>
<text xml:space="preserve" text-anchor="middle" x="336.5" y="-79.7" font-family="Helvetica,Arial,sans-serif" font-size="14.00">діалекти</text>
</g>
<!-- Dialects&#45;&gt;Social -->
<g id="edge5" class="edge">
<title>Dialects&#45;&gt;Social</title>
<path fill="none" stroke="#444444" d="M217.11,-148.75C238.02,-139.16 264.3,-127.11 286.87,-116.76"/>
<polygon fill="#444444" stroke="#444444" points="288.28,-119.96 295.91,-112.61 285.36,-113.6 288.28,-119.96"/>
</g>
<!-- Hovir -->
<g id="node7" class="node">
<title>Hovir</title>
<path fill="#f9f9f9" stroke="black" d="M117.5,-37C117.5,-37 87.5,-37 87.5,-37 81.5,-37 75.5,-31 75.5,-25 75.5,-25 75.5,-13 75.5,-13 75.5,-7 81.5,-1 87.5,-1 87.5,-1 117.5,-1 117.5,-1 123.5,-1 129.5,-7 129.5,-13 129.5,-13 129.5,-25 129.5,-25 129.5,-31 123.5,-37 117.5,-37"/>
<text xml:space="preserve" text-anchor="middle" x="102.5" y="-13.2" font-family="Helvetica,Arial,sans-serif" font-size="14.00">Говір</text>
</g>
<!-- Territorial&#45;&gt;Hovir -->
<g id="edge6" class="edge">
<title>Territorial&#45;&gt;Hovir</title>
<path fill="none" stroke="#444444" d="M160.07,-73.83C150.74,-65.11 139.42,-54.52 129.29,-45.05"/>
<polygon fill="#444444" stroke="#444444" points="131.93,-42.72 122.23,-38.45 127.15,-47.84 131.93,-42.72"/>
</g>
<!-- Hovirka -->
<g id="node8" class="node">
<title>Hovirka</title>
<path fill="#f9f9f9" stroke="black" d="M199.5,-37C199.5,-37 159.5,-37 159.5,-37 153.5,-37 147.5,-31 147.5,-25 147.5,-25 147.5,-13 147.5,-13 147.5,-7 153.5,-1 159.5,-1 159.5,-1 199.5,-1 199.5,-1 205.5,-1 211.5,-7 211.5,-13 211.5,-13 211.5,-25 211.5,-25 211.5,-31 205.5,-37 199.5,-37"/>
<text xml:space="preserve" text-anchor="middle" x="179.5" y="-13.2" font-family="Helvetica,Arial,sans-serif" font-size="14.00">Говірка</text>
</g>
<!-- Territorial&#45;&gt;Hovirka -->
<g id="edge7" class="edge">
<title>Territorial&#45;&gt;Hovirka</title>
<path fill="none" stroke="#444444" d="M179.5,-73.83C179.5,-66.24 179.5,-57.24 179.5,-48.79"/>
<polygon fill="#444444" stroke="#444444" points="183,-48.93 179.5,-38.93 176,-48.93 183,-48.93"/>
</g>
<!-- Slang -->
<g id="node9" class="node">
<title>Slang</title>
<path fill="#f9f9f9" stroke="black" d="M273,-37C273,-37 242,-37 242,-37 236,-37 230,-31 230,-25 230,-25 230,-13 230,-13 230,-7 236,-1 242,-1 242,-1 273,-1 273,-1 279,-1 285,-7 285,-13 285,-13 285,-25 285,-25 285,-31 279,-37 273,-37"/>
<text xml:space="preserve" text-anchor="middle" x="257.5" y="-13.2" font-family="Helvetica,Arial,sans-serif" font-size="14.00">Сленг</text>
</g>
<!-- Social&#45;&gt;Slang -->
<g id="edge8" class="edge">
<title>Social&#45;&gt;Slang</title>
<path fill="none" stroke="#444444" d="M316.56,-73.83C306.99,-65.11 295.37,-54.52 284.98,-45.05"/>
<polygon fill="#444444" stroke="#444444" points="287.48,-42.59 277.73,-38.44 282.76,-47.76 287.48,-42.59"/>
</g>
<!-- Jargon -->
<g id="node10" class="node">
<title>Jargon</title>
<path fill="#f9f9f9" stroke="black" d="M357.62,-37C357.62,-37 315.38,-37 315.38,-37 309.38,-37 303.38,-31 303.38,-25 303.38,-25 303.38,-13 303.38,-13 303.38,-7 309.38,-1 315.38,-1 315.38,-1 357.62,-1 357.62,-1 363.62,-1 369.62,-7 369.62,-13 369.62,-13 369.62,-25 369.62,-25 369.62,-31 363.62,-37 357.62,-37"/>
<text xml:space="preserve" text-anchor="middle" x="336.5" y="-13.2" font-family="Helvetica,Arial,sans-serif" font-size="14.00">Жаргон</text>
</g>
<!-- Social&#45;&gt;Jargon -->
<g id="edge9" class="edge">
<title>Social&#45;&gt;Jargon</title>
<path fill="none" stroke="#444444" d="M336.5,-73.83C336.5,-66.24 336.5,-57.24 336.5,-48.79"/>
<polygon fill="#444444" stroke="#444444" points="340,-48.93 336.5,-38.93 333,-48.93 340,-48.93"/>
</g>
<!-- Professional -->
<g id="node11" class="node">
<title>Professional</title>
<path fill="#f9f9f9" stroke="black" d="M469.12,-38C469.12,-38 399.88,-38 399.88,-38 393.88,-38 387.88,-32 387.88,-26 387.88,-26 387.88,-12 387.88,-12 387.88,-6 393.88,0 399.88,0 399.88,0 469.12,0 469.12,0 475.12,0 481.12,-6 481.12,-12 481.12,-12 481.12,-26 481.12,-26 481.12,-32 475.12,-38 469.12,-38"/>
<text xml:space="preserve" text-anchor="middle" x="434.5" y="-20.7" font-family="Helvetica,Arial,sans-serif" font-size="14.00">Професійна</text>
<text xml:space="preserve" text-anchor="middle" x="434.5" y="-5.7" font-family="Helvetica,Arial,sans-serif" font-size="14.00">мова</text>
</g>
<!-- Social&#45;&gt;Professional -->
<g id="edge10" class="edge">
<title>Social&#45;&gt;Professional</title>
<path fill="none" stroke="#444444" d="M361.48,-73.65C373.35,-64.93 387.71,-54.38 400.54,-44.95"/>
<polygon fill="#444444" stroke="#444444" points="402.36,-47.96 408.34,-39.22 398.21,-42.32 402.36,-47.96"/>
</g>
<!-- Sociolects -->
<g id="node12" class="node">
<title>Sociolects</title>
<path fill="#f9f9f9" stroke="black" d="M577.62,-37C577.62,-37 511.38,-37 511.38,-37 505.38,-37 499.38,-31 499.38,-25 499.38,-25 499.38,-13 499.38,-13 499.38,-7 505.38,-1 511.38,-1 511.38,-1 577.62,-1 577.62,-1 583.62,-1 589.62,-7 589.62,-13 589.62,-13 589.62,-25 589.62,-25 589.62,-31 583.62,-37 577.62,-37"/>
<text xml:space="preserve" text-anchor="middle" x="544.5" y="-13.2" font-family="Helvetica,Arial,sans-serif" font-size="14.00">Соціолекти</text>
</g>
<!-- Social&#45;&gt;Sociolects -->
<g id="edge11" class="edge">
<title>Social&#45;&gt;Sociolects</title>
<path fill="none" stroke="#444444" d="M375.62,-78.46C407.4,-67.46 452.64,-51.8 488.3,-39.45"/>
<polygon fill="#444444" stroke="#444444" points="489.3,-42.81 497.6,-36.23 487.01,-36.2 489.3,-42.81"/>
</g>
</g>
</svg>
